<?xml version="1.0" encoding="UTF-8"?>
<svg version="1.1" xmlns="http://www.w3.org/2000/svg" width="165" height="157">
<path d="M0 0 C54.45 0 108.9 0 165 0 C165 51.81 165 103.62 165 157 C110.55 157 56.1 157 0 157 C0 105.19 0 53.38 0 0 Z " fill="#352F44" transform="translate(0,0)"/>
<path d="M0 0 C3.5625 0.375 3.5625 0.375 5.2668457 1.90917969 C7.05686538 5.31584988 6.93580002 8.45182451 6.85546875 12.203125 C6.85122391 12.95213074 6.84697906 13.70113647 6.84260559 14.47283936 C6.82585746 16.85726375 6.78821397 19.24083253 6.75 21.625 C6.73494809 23.24477943 6.72126057 24.86457215 6.70898438 26.484375 C6.6759668 30.44824466 6.62421246 34.41147743 6.5625 38.375 C7.38975586 38.35405273 8.21701172 38.33310547 9.06933594 38.31152344 C12.8169337 38.22838381 16.56433749 38.17634469 20.3125 38.125 C21.61445312 38.09148438 22.91640625 38.05796875 24.2578125 38.0234375 C25.50820312 38.01054688 26.75859375 37.99765625 28.046875 37.984375 C29.77502441 37.9529541 29.77502441 37.9529541 31.53808594 37.92089844 C34.5625 38.375 34.5625 38.375 36.96972656 40.08691406 C38.89081911 42.84664419 39.09645034 44.07859154 38.5625 47.375 C37.54370117 49.34106445 37.54370117 49.34106445 36.10546875 51.23828125 C35.57574463 51.95161621 35.04602051 52.66495117 34.50024414 53.39990234 C33.92266357 54.15480957 33.34508301 54.9097168 32.75 55.6875 C31.54270479 57.31003383 30.33700158 58.93375333 29.1328125 60.55859375 C28.52727539 61.37054199 27.92173828 62.18249023 27.29785156 63.01904297 C24.82576154 66.37521471 22.46751664 69.80268878 20.125 73.25 C-4.75971116 109.69721116 -4.75971116 109.69721116 -9.4375 114.375 C-12.875 114.75 -12.875 114.75 -16.4375 114.375 C-19.14062711 111.94175966 -19.43048163 110.4486753 -19.77807617 106.79980469 C-19.77760403 105.38207272 -19.76082145 103.96428209 -19.73046875 102.546875 C-19.72622391 101.79786926 -19.72197906 101.04886353 -19.71760559 100.27716064 C-19.70085746 97.89273625 -19.66321397 95.50916747 -19.625 93.125 C-19.60994809 91.50522057 -19.59626057 89.88542785 -19.58398438 88.265625 C-19.5509668 84.30175534 -19.49921246 80.33852257 -19.4375 76.375 C-20.67838379 76.4064209 -20.67838379 76.4064209 -21.94433594 76.43847656 C-25.6919337 76.52161619 -29.43933749 76.57365531 -33.1875 76.625 C-34.48945312 76.65851563 -35.79140625 76.69203125 -37.1328125 76.7265625 C-38.38320313 76.73945312 -39.63359375 76.75234375 -40.921875 76.765625 C-42.07397461 76.78657227 -43.22607422 76.80751953 -44.41308594 76.82910156 C-47.4375 76.375 -47.4375 76.375 -49.84472656 74.66308594 C-51.76581911 71.90335581 -51.97145034 70.67140846 -51.4375 67.375 C-50.41870117 65.40893555 -50.41870117 65.40893555 -48.98046875 63.51171875 C-48.45074463 62.79838379 -47.92102051 62.08504883 -47.37524414 61.35009766 C-46.79766357 60.59519043 -46.22008301 59.8402832 -45.625 59.0625 C-44.41770479 57.43996617 -43.21200158 55.81624667 -42.0078125 54.19140625 C-41.40227539 53.37945801 -40.79673828 52.56750977 -40.17285156 51.73095703 C-37.70076154 48.37478529 -35.34251664 44.94731122 -33 41.5 C-5.04090647 0.54991707 -5.04090647 0.54991707 0 0 Z " fill="#FDEE84" transform="translate(89.4375,21.625)"/>
</svg>
